<?xml version="1.0" encoding="UTF-8"?>
<svg id="Layer_2" data-name="Layer 2" xmlns="http://www.w3.org/2000/svg" xmlns:xlink="http://www.w3.org/1999/xlink" viewBox="0 0 1000 1000">
  <defs>
    <style>
      .cls-1 {
        fill: url(#linear-gradient-3);
      }

      .cls-1, .cls-2, .cls-3, .cls-4, .cls-5, .cls-6, .cls-7 {
        stroke-width: 0px;
      }

      .cls-1, .cls-2, .cls-3, .cls-4, .cls-7 {
        fill-rule: evenodd;
      }

      .cls-2 {
        fill: url(#linear-gradient);
      }

      .cls-3 {
        fill: url(#linear-gradient-2);
      }

      .cls-4 {
        fill: url(#linear-gradient-5);
      }

      .cls-5 {
        fill: url(#radial-gradient);
      }

      .cls-6 {
        fill: #0078cf;
      }

      .cls-7 {
        fill: url(#linear-gradient-4);
      }
    </style>
    <linearGradient id="linear-gradient" x1="375.12" y1="406.14" x2="601.55" y2="563.45" gradientUnits="userSpaceOnUse">
      <stop offset="0" stop-color="#008ff6"/>
      <stop offset=".06" stop-color="#008ff6" stop-opacity=".83"/>
      <stop offset=".15" stop-color="#008ff6" stop-opacity=".61"/>
      <stop offset=".24" stop-color="#008ff6" stop-opacity=".43"/>
      <stop offset=".32" stop-color="#008ff6" stop-opacity=".27"/>
      <stop offset=".41" stop-color="#008ff6" stop-opacity=".15"/>
      <stop offset=".49" stop-color="#008ff6" stop-opacity=".07"/>
      <stop offset=".58" stop-color="#008ff6" stop-opacity=".02"/>
      <stop offset=".66" stop-color="#008ff6" stop-opacity="0"/>
    </linearGradient>
    <linearGradient id="linear-gradient-2" x1="469.39" y1="273.02" x2="545.23" y2="427.69" gradientUnits="userSpaceOnUse">
      <stop offset="1" stop-color="#008ff6"/>
      <stop offset="1" stop-color="#007ad1"/>
      <stop offset="1" stop-color="#0062a8"/>
      <stop offset="1" stop-color="#004c83"/>
      <stop offset="1" stop-color="#003962"/>
      <stop offset="1" stop-color="#002947"/>
      <stop offset="1" stop-color="#001c31"/>
      <stop offset="1" stop-color="#001220"/>
      <stop offset="1" stop-color="#000c14"/>
      <stop offset="1" stop-color="#00080d"/>
      <stop offset="1" stop-color="#00070c"/>
    </linearGradient>
    <linearGradient id="linear-gradient-3" x1="522.55" y1="291.41" x2="399.85" y2="414.11" gradientUnits="userSpaceOnUse">
      <stop offset="0" stop-color="#008ff6"/>
      <stop offset=".09" stop-color="#008ff6" stop-opacity=".96"/>
      <stop offset=".24" stop-color="#008ff6" stop-opacity=".85"/>
      <stop offset=".42" stop-color="#008ff6" stop-opacity=".68"/>
      <stop offset=".65" stop-color="#008ff6" stop-opacity=".44"/>
      <stop offset=".9" stop-color="#008ff6" stop-opacity=".13"/>
      <stop offset="1" stop-color="#008ff6" stop-opacity="0"/>
    </linearGradient>
    <linearGradient id="linear-gradient-4" x1="579.8" y1="402.53" x2="526.5" y2="325.01" gradientUnits="userSpaceOnUse">
      <stop offset="0" stop-color="#008ff6"/>
      <stop offset=".19" stop-color="#008ff6" stop-opacity=".99"/>
      <stop offset=".32" stop-color="#008ff6" stop-opacity=".95"/>
      <stop offset=".42" stop-color="#008ff6" stop-opacity=".89"/>
      <stop offset=".52" stop-color="#008ff6" stop-opacity=".81"/>
      <stop offset=".6" stop-color="#008ff6" stop-opacity=".7"/>
      <stop offset=".69" stop-color="#008ff6" stop-opacity=".56"/>
      <stop offset=".77" stop-color="#008ff6" stop-opacity=".4"/>
      <stop offset=".84" stop-color="#008ff6" stop-opacity=".21"/>
      <stop offset=".91" stop-color="#008ff6" stop-opacity="0"/>
      <stop offset=".91" stop-color="#008ff6" stop-opacity="0"/>
    </linearGradient>
    <linearGradient id="linear-gradient-5" x1="528.83" y1="422.34" x2="401.73" y2="386.91" gradientUnits="userSpaceOnUse">
      <stop offset=".61" stop-color="#008ff6"/>
      <stop offset=".61" stop-color="#008ff6" stop-opacity=".99"/>
      <stop offset=".63" stop-color="#008ff6" stop-opacity=".8"/>
      <stop offset=".64" stop-color="#008ff6" stop-opacity=".64"/>
      <stop offset=".66" stop-color="#008ff6" stop-opacity=".48"/>
      <stop offset=".68" stop-color="#008ff6" stop-opacity=".35"/>
      <stop offset=".71" stop-color="#008ff6" stop-opacity=".24"/>
      <stop offset=".73" stop-color="#008ff6" stop-opacity=".15"/>
      <stop offset=".76" stop-color="#008ff6" stop-opacity=".08"/>
      <stop offset=".8" stop-color="#008ff6" stop-opacity=".04"/>
      <stop offset=".85" stop-color="#008ff6" stop-opacity="0"/>
      <stop offset="1" stop-color="#008ff6" stop-opacity="0"/>
    </linearGradient>
    <radialGradient id="radial-gradient" cx="494.14" cy="400.02" fx="494.14" fy="400.02" r="32.89" gradientUnits="userSpaceOnUse">
      <stop offset="0" stop-color="#008ff6" stop-opacity=".5"/>
      <stop offset=".15" stop-color="#008ff6" stop-opacity=".39"/>
      <stop offset=".41" stop-color="#008ff6" stop-opacity=".22"/>
      <stop offset=".65" stop-color="#008ff6" stop-opacity=".1"/>
      <stop offset=".85" stop-color="#008ff6" stop-opacity=".03"/>
      <stop offset="1" stop-color="#008ff6" stop-opacity="0"/>
    </radialGradient>
  </defs>
  <g id="Layer_1" data-name="Layer 1">
    <g>
      <path class="cls-2" d="M359.32,337.54c-5.22,17.06-7.51,34.35-6.76,50.92,1.56,34.77,14.31,91.98,71.14,124.3,43.32,24.64,84.68,19.38,84.68,19.38,0,0-64.74-13.51-100.08-45.97-34.52-31.71-39.66-82.38-39.66-82.38,0,0,16.82,39.28,78.21,55.82,40.8,10.99,111.37-1.34,109.02-1.46-40.68-2.03-143.14-.49-173.63-56.57-9.88-18.17-11.13-41.05-4.65-63.38-5.55-1.85-11.2-3.44-16.86-5-.49,1.43-.96,2.87-1.41,4.34Z"/>
      <path class="cls-3" d="M504.09,253.29c93.45,3.91,128.54,71.44,128.54,71.44,0,0-18.46-54.16-100.74-80.77-57.88-18.72-144.54,11.34-171.16,89.25,5.66,1.56,11.31,3.15,16.86,5,13.08-45.04,57.67-87.8,126.5-84.92Z"/>
      <path class="cls-1" d="M504.53,287.04c-12.95,6.55-27.76,18.34-45.66,38.26-27.25,30.33-50.54,90.24-50.45,90.4l6.64,13.61c.28.57,24.04-56.82,52.99-93.41,10.57-13.36,22.89-23.08,33.41-29.79,6-3.83,12.53-6.6,19.31-8.25-1.52-5.09-4.64-9.95-6.57-14.8-3.31,1.06-6.54,2.39-9.67,3.97Z"/>
      <path class="cls-7" d="M590.18,419.7c3.63-49.57-63.64-85.21-63.03-84.77,9.52,6.89,47.74,36.67,51.42,68.98.63,5.49.4,11.13-.44,16.75,3.99.27,7.96.46,11.89.9.05-.62.1-1.23.15-1.85Z"/>
      <path class="cls-4" d="M642.67,368.58c-3.83-14.08-10.16-28.74-20.55-40.94-25.23-29.63-52.96-41.34-72-45.94-11.93-2.88-24.36-2.36-35.93,1.36,1.93,4.85,5.05,9.7,6.57,14.8,10.12-2.46,20.78-2.43,31.06.3,17.18,4.56,37.66,14.11,54.58,33.1,9.84,11.05,17.89,23.72,21.8,36.38,9.5,30.77,6.25,64.02-8.29,92.75-6.11,12.08-14.41,25.4-25.22,36.74-36.99,38.79-82.67,42.09-82.67,42.09,0,0,71.18-38.76,78.02-117.65-3.94-.44-7.91-.63-11.89-.9-4.47,30.16-26.29,59.55-26.29,59.55,0,0-29.87,45.69-69.15,52.99-50.71,9.42-90.57-23.3-90.57-23.3,0,0,61.62,75.68,174.33,28.8,33.63-13.99,60.95-53.13,71.57-81.24,10.74-28.44,12.61-59.54,4.63-88.87Z"/>
      <circle class="cls-5" cx="494.14" cy="400.02" r="32.89"/>
      <circle class="cls-6" cx="494.14" cy="400.02" r="12.32"/>
    </g>
  </g>
</svg>